<svg viewBox="0 0 96 96" xmlns="http://www.w3.org/2000/svg" xmlns:xlink="http://www.w3.org/1999/xlink" id="Icons_Nose" overflow="hidden"><style>
.MsftOfcThm_Background1_Fill_v2 {
 fill:#FFFFFF; 
}
</style>
<path d="M66.5 57C63.58 51 64.84 40.56 60 26.5 55.06 12.15 51 11.5 48 11.5 45 11.5 40.94 12.15 36 26.5 31.16 40.56 32.42 51 29.5 57 26.92 62.33 19.42 64.81 19.42 71.58 19.42 74.41 22.49 81.37 32.5 83.77 31.4696 82.17 30.6779 80.4284 30.15 78.6 29.5425 76.4737 30.7737 74.2575 32.9 73.65 35.0263 73.0425 37.2425 74.2737 37.85 76.4 39.1269 82.0057 44.7064 85.5149 50.3121 84.2379 54.2141 83.3491 57.2612 80.3021 58.15 76.4 58.7575 74.2737 60.9737 73.0425 63.1 73.65 65.2263 74.2575 66.4575 76.4737 65.85 78.6 65.3221 80.4284 64.5304 82.17 63.5 83.77 73.5 81.37 76.58 74.41 76.58 71.58 76.58 64.81 69.08 62.33 66.5 57Z" class="MsftOfcThm_Background1_Fill_v2" stroke="none" stroke-width="1" stroke-linecap="butt" stroke-linejoin="miter" stroke-miterlimit="4" fill="#FFFFFF" fill-opacity="1"/></svg>