<svg viewBox="0 0 96 96" xmlns="http://www.w3.org/2000/svg" xmlns:xlink="http://www.w3.org/1999/xlink" id="Icons_Tooth" overflow="hidden"><style>
.MsftOfcThm_Background1_Fill_v2 {
 fill:#FFFFFF; 
}
</style>
<path d="M78 24C78 15.2 73.7 8 65 8 56.3 8 56.6 12 48 12 39.4 12 39.7 8 31 8 22.3 8 18 15.2 18 24 18 32.8 25 41.5 25 49 25 56.1 24 62.1 24 67 24 71.9 23.9 88 31 88 38.1 88 38 73.4 38 67 38 60.6 38.8 51 48 51 57.2 51 58 60.6 58 67 58 73.4 57.9 88 65 88 72.1 88 72 71.9 72 67 72 62.1 71 56.1 71 49 71 41.5 78 32.8 78 24Z" class="MsftOfcThm_Background1_Fill_v2" stroke="none" stroke-width="1" stroke-linecap="butt" stroke-linejoin="miter" stroke-miterlimit="4" fill="#FFFFFF" fill-opacity="1"/></svg>